#N canvas 942 1187 951 638 10;
#X obj 55 332 *~;
#X floatatom 54 235 0 0 0 0 - - -;
#X obj 211 315 line~;
#X msg 221 258 0.1 100;
#X msg 254 288 0 100;
#X text 97 417 audio output;
#X msg 360 76 \; metro 0;
#X msg 359 17 \; pd dsp 1 \; metro 1;
#X obj 54 264 osc~ 1000;
#X text 422 92 <-Click to stop;
#X obj 57 161 hsl 800 30 20 20000 1 1 empty empty Frecuencia -2 -6
0 10 -191407 -1 -1 0 1;
#X obj 56 416 dac~;
#X text 223 208 100hz;
#X text 487 210 1 khz;
#X text 298 282 OFF!!;
#X text 274 257 ON !!;
#X text 260 915 ------------;
#X obj 83 383 delwrite~ fase 1000;
#X obj 381 398 delread~ fase;
#X obj 326 328 hsl 228 15 0 20 0 0 empty empty empty -2 -8 0 10 -262144
-1 -1 0 1;
#X floatatom 318 366 5 0 0 0 - - -;
#X text 354 366 ms delay entre L y R;
#X text 637 255 180ยบ phase 90ยบ phase;
#X obj 78 210 s freq;
#X obj 615 27 r freq;
#X obj 615 49 t b f;
#X msg 614 75 340;
#X obj 653 78 /;
#X floatatom 653 101 5 0 0 0 - - -;
#X obj 612 256 f;
#X text 694 104 longitud de onda (metros);
#X obj 654 122 s longOnda;
#X obj 627 231 r longOnda;
#X msg 595 228 bang;
#X msg 330 305 0;
#X text 361 305 no delay entre L y R;
#X obj 664 322 f;
#X obj 701 271 r longOnda;
#X msg 647 294 bang;
#X obj 715 307 / 2;
#X text -14 130 //------------------------oscillator;
#X text 105 210 comment;
#X obj 47 68 dbm-connect;
#X obj 130 272 receive volume;
#X text -28 398;
#X text 364 167;
#X text 511 296;
#X obj 54 105 receive frequency;
#X floatatom 77 126 5 0 0 0 - - -;
#X connect 0 0 11 0;
#X connect 0 0 17 0;
#X connect 1 0 8 0;
#X connect 2 0 0 1;
#X connect 3 0 2 0;
#X connect 4 0 2 0;
#X connect 8 0 0 0;
#X connect 10 0 1 0;
#X connect 10 0 23 0;
#X connect 18 0 11 1;
#X connect 19 0 18 0;
#X connect 19 0 20 0;
#X connect 24 0 25 0;
#X connect 25 0 26 0;
#X connect 25 1 27 1;
#X connect 26 0 27 0;
#X connect 27 0 28 0;
#X connect 28 0 31 0;
#X connect 29 0 19 0;
#X connect 32 0 29 1;
#X connect 33 0 29 0;
#X connect 34 0 19 0;
#X connect 36 0 19 0;
#X connect 37 0 39 0;
#X connect 38 0 36 0;
#X connect 39 0 36 1;
#X connect 43 0 2 0;
#X connect 47 0 10 0;
#X connect 47 0 48 0;
